<?xml version="1.0" encoding="utf-8"?>
<?xml-stylesheet type="text/xsl" href="rss1.xsl"?>
<rss version="2.0" xmlns:atom="http://www.w3.org/2005/Atom" xmlns:content="http://purl.org/rss/1.0/modules/content/" xmlns:dc="http://purl.org/dc/elements/1.1/" xmlns:media="http://search.yahoo.com/mrss/">
<channel>
 <title>Getty</title>
 <link>http://www.gettyimg.com/</link>
 <atom:link href="http://www.gettyimg.com/" rel="self" type="application/rss+xml" />

 
                <item>
                <title><![CDATA[【Albums (lossy)】MP3 - Chris Brown - Weakest Link (Explicit) (MP3)]]></title>
                <link><![CDATA[https://sharemania.us/threads/chris-brown-weakest-link-explicit-mp3.242810/]]></link>
                <description><![CDATA[<article>
<blockquote class="messageText SelectQuoteContainer ugc baseHtml">
<img src="https://i.imgur.com/Hohcwv2.png" class="bbCodeImage LbImage" alt="[​IMG]" data-url="https://i.imgur.com/Hohcwv2.png" style=""><br>
<b><span style="font-size: 18px">Chris Brown - Weakest Link (Explicit)</span></b><br>
<div class="ToggleTriggerAnchor bbCodeSpoilerContainer">
<button type="button" class="button bbCodeSpoilerButton ToggleTrigger Tooltip JsOnly" data-target="> .SpoilerTarget"><span>Spoiler: <span class="SpoilerTitle">Audio Info</span></span></button>
<div class="SpoilerTarget bbCodeSpoilerText"><b><span style="font-size: 15px">192KBPS/44.100 KHZ/STEREO<br>
General<br>
Complete name : Weakest Link (Dirty).mp3<br>
Format : MPEG Audio<br>
File size : 3.55 MiB<br>
Duration : 2 min 28 s<br>
Overall bit rate mode : Constant<br>
Overall bit rate : 192 kb/s<br>
Album : Weakest Link - Single<br>
Album/Performer : Chris Brown <br>
Track name : Weakest Link (Dirty)<br>
Performer : Chris Brown <br>
Encoded by : iTunes 12.9.5.5<br>
Genre : Hip-Hop<br>
Recorded date : 2024<br>
Cover : Yes<br>
Cover MIME : image/JPG<br>
Comment : <br>
iTunPGAP : 0<br>
<br>
Audio<br>
Format : MPEG Audio<br>
Format version : Version 1<br>
Format profile : Layer 3<br>
Duration : 2 min 28 s<br>
Bit rate mode : Constant<br>
Bit rate : 192 kb/s<br>
Channel(s) : 2 channels<br>
Sampling rate : 48.0 kHz<br>
Compression mode : Lossy<br>
Stream size : 3.40 MiB (96%)</span></b></div>
</div><b><br>
[/URL]
<div class="bbCodeBlock bbCodeVfcHH HiddenContent">
<div class="attribution type">Hidden Content:</div>
<blockquote>You must reply before you can see the hidden data contained here.</blockquote>
</div></b><br>
<br>
<b><span style="font-size: 15px"><br>
</span></b>
<div class="messageTextEndMarker">&nbsp;</div>
</blockquote>
</article>]]></description>
                <author><![CDATA[gamerfronts]]></author>
                </item>

                
                <item>
                <title><![CDATA[【Albums (lossy)】MP3 - Future &amp; Metro Boomin feat. Kanye West &amp; Ty Dolla $ign - Like That Diss (Remix) (Explicit) (MP3)]]></title>
                <link><![CDATA[https://sharemania.us/threads/future-metro-boomin-feat-kanye-west-ty-dolla-ign-like-that-diss-remix-explicit-mp3.242811/]]></link>
                <description><![CDATA[<article>
<blockquote class="messageText SelectQuoteContainer ugc baseHtml">
<img src="https://i.imgur.com/DDQPk53.png" class="bbCodeImage LbImage" alt="[​IMG]" data-url="https://i.imgur.com/DDQPk53.png" style=""> <br>
<b>Future &amp; Metro Boomin feat. Kanye West &amp; Ty Dolla $ign - Like That Diss (Remix Explicit)</b><br>
<div class="ToggleTriggerAnchor bbCodeSpoilerContainer">
<button type="button" class="button bbCodeSpoilerButton ToggleTrigger Tooltip JsOnly" data-target="> .SpoilerTarget"><span>Spoiler: <span class="SpoilerTitle">Media Info</span></span></button>
<div class="SpoilerTarget bbCodeSpoilerText">General<br>
Complete name : Like That Diss (Remix Dirty).mp3<br>
Format : MPEG Audio<br>
File size : 7.11 MiB<br>
Duration : 3 min 4 s<br>
Overall bit rate mode : Constant<br>
Overall bit rate : 320 kb/s<br>
Album : Like That (Diss Remix)<br>
Album/Performer : Future &amp; Metro Boomin<br>
Track name : Like That (Diss Remix Dirty)<br>
Performer : Future &amp; Metro Boomin feat. Kanye West &amp; Ty Dolla $ign<br>
Encoded by : Music 1.3.6.14<br>
Genre : Hip-Hop/Rap<br>
Recorded date : 2024<br>
Cover : Yes<br>
Cover MIME : image/JPG<br>
Comment : <br>
iTunPGAP : 0<br>
<br>
Audio<br>
Format : MPEG Audio<br>
Format version : Version 1<br>
Format profile : Layer 3<br>
Duration : 3 min 4 s<br>
Bit rate mode : Constant<br>
Bit rate : 320 kb/s<br>
Channel(s) : 2 channels<br>
Sampling rate : 48.0 kHz<br>
Compression mode : Lossy<br>
Stream size : 7.05 MiB (99%)</div>
</div><b><br>
[/URL]
<div class="bbCodeBlock bbCodeVfcHH HiddenContent">
<div class="attribution type">Hidden Content:</div>
<blockquote>You must reply before you can see the hidden data contained here.</blockquote>
</div></b>
<div class="messageTextEndMarker">&nbsp;</div>
</blockquote>
</article>]]></description>
                <author><![CDATA[gamerfronts]]></author>
                </item>

                </channel></rss>